<?xml version="1.0" encoding="UTF-8" standalone="no"?>
<!-- Created with Inkscape (http://www.inkscape.org/) -->

<svg
   xmlns:dc="http://purl.org/dc/elements/1.1/"
   xmlns:cc="http://creativecommons.org/ns#"
   xmlns:rdf="http://www.w3.org/1999/02/22-rdf-syntax-ns#"
   xmlns:svg="http://www.w3.org/2000/svg"
   xmlns="http://www.w3.org/2000/svg"
   xmlns:sodipodi="http://sodipodi.sourceforge.net/DTD/sodipodi-0.dtd"
   xmlns:inkscape="http://www.inkscape.org/namespaces/inkscape"
   width="309.03189"
   height="416.47629"
   id="svg2"
   version="1.1"
   inkscape:version="0.47 r22583"
   sodipodi:docname="Patrick.svg">
  <defs
     id="defs4">
    <inkscape:perspective
       sodipodi:type="inkscape:persp3d"
       inkscape:vp_x="0 : 526.18109 : 1"
       inkscape:vp_y="0 : 1000 : 0"
       inkscape:vp_z="744.09448 : 526.18109 : 1"
       inkscape:persp3d-origin="372.04724 : 350.78739 : 1"
       id="perspective10" />
    <inkscape:perspective
       id="perspective2824"
       inkscape:persp3d-origin="0.5 : 0.33333333 : 1"
       inkscape:vp_z="1 : 0.5 : 1"
       inkscape:vp_y="0 : 1000 : 0"
       inkscape:vp_x="0 : 0.5 : 1"
       sodipodi:type="inkscape:persp3d" />
    <inkscape:perspective
       id="perspective3623"
       inkscape:persp3d-origin="0.5 : 0.33333333 : 1"
       inkscape:vp_z="1 : 0.5 : 1"
       inkscape:vp_y="0 : 1000 : 0"
       inkscape:vp_x="0 : 0.5 : 1"
       sodipodi:type="inkscape:persp3d" />
    <inkscape:perspective
       id="perspective3647"
       inkscape:persp3d-origin="0.5 : 0.33333333 : 1"
       inkscape:vp_z="1 : 0.5 : 1"
       inkscape:vp_y="0 : 1000 : 0"
       inkscape:vp_x="0 : 0.5 : 1"
       sodipodi:type="inkscape:persp3d" />
    <inkscape:perspective
       id="perspective3674"
       inkscape:persp3d-origin="0.5 : 0.33333333 : 1"
       inkscape:vp_z="1 : 0.5 : 1"
       inkscape:vp_y="0 : 1000 : 0"
       inkscape:vp_x="0 : 0.5 : 1"
       sodipodi:type="inkscape:persp3d" />
    <inkscape:perspective
       id="perspective3722"
       inkscape:persp3d-origin="0.5 : 0.33333333 : 1"
       inkscape:vp_z="1 : 0.5 : 1"
       inkscape:vp_y="0 : 1000 : 0"
       inkscape:vp_x="0 : 0.5 : 1"
       sodipodi:type="inkscape:persp3d" />
    <inkscape:perspective
       id="perspective3722-9"
       inkscape:persp3d-origin="0.5 : 0.33333333 : 1"
       inkscape:vp_z="1 : 0.5 : 1"
       inkscape:vp_y="0 : 1000 : 0"
       inkscape:vp_x="0 : 0.5 : 1"
       sodipodi:type="inkscape:persp3d" />
    <inkscape:perspective
       id="perspective3722-8"
       inkscape:persp3d-origin="0.5 : 0.33333333 : 1"
       inkscape:vp_z="1 : 0.5 : 1"
       inkscape:vp_y="0 : 1000 : 0"
       inkscape:vp_x="0 : 0.5 : 1"
       sodipodi:type="inkscape:persp3d" />
    <inkscape:perspective
       id="perspective3722-2"
       inkscape:persp3d-origin="0.5 : 0.33333333 : 1"
       inkscape:vp_z="1 : 0.5 : 1"
       inkscape:vp_y="0 : 1000 : 0"
       inkscape:vp_x="0 : 0.5 : 1"
       sodipodi:type="inkscape:persp3d" />
    <inkscape:perspective
       id="perspective3778"
       inkscape:persp3d-origin="0.5 : 0.33333333 : 1"
       inkscape:vp_z="1 : 0.5 : 1"
       inkscape:vp_y="0 : 1000 : 0"
       inkscape:vp_x="0 : 0.5 : 1"
       sodipodi:type="inkscape:persp3d" />
    <inkscape:perspective
       id="perspective3800"
       inkscape:persp3d-origin="0.5 : 0.33333333 : 1"
       inkscape:vp_z="1 : 0.5 : 1"
       inkscape:vp_y="0 : 1000 : 0"
       inkscape:vp_x="0 : 0.5 : 1"
       sodipodi:type="inkscape:persp3d" />
  </defs>
  <sodipodi:namedview
     id="base"
     pagecolor="#ffffff"
     bordercolor="#666666"
     borderopacity="1.0"
     inkscape:pageopacity="0.0"
     inkscape:pageshadow="2"
     inkscape:zoom="1.3995495"
     inkscape:cx="110.07071"
     inkscape:cy="209.26215"
     inkscape:document-units="px"
     inkscape:current-layer="layer2"
     showgrid="false"
     inkscape:window-width="1152"
     inkscape:window-height="808"
     inkscape:window-x="-4"
     inkscape:window-y="-4"
     inkscape:window-maximized="1"
     showguides="true"
     inkscape:guide-bbox="true" />
  <metadata
     id="metadata7">
    <rdf:RDF>
      <cc:Work
         rdf:about="">
        <dc:format>image/svg+xml</dc:format>
        <dc:type
           rdf:resource="http://purl.org/dc/dcmitype/StillImage" />
        <dc:title />
      </cc:Work>
    </rdf:RDF>
  </metadata>
  <g
     inkscape:groupmode="layer"
     id="layer4"
     inkscape:label="FarArm"
     transform="translate(-206.94374,-280.23308)">
    <path
       style="fill:#fc886f;fill-opacity:1;stroke:#f13301;stroke-width:3.20000005;stroke-linecap:butt;stroke-linejoin:miter;stroke-miterlimit:4;stroke-opacity:1;stroke-dasharray:none"
       d="m 308.37004,446.19478 c 0,0 -32.15859,-17.62114 -46.69603,-31.27753 -14.53745,-13.65639 -39.06704,-37.14441 -47.57709,-30.83701 -9.00927,6.6774 -6.60793,20.70485 3.96475,41.85022 10.57269,21.14537 12.3348,30.83701 28.63437,53.30397 16.69506,23.01212 31.27753,35.68282 31.27753,35.68282"
       id="path3610"
       sodipodi:nodetypes="cssssc" />
  </g>
  <g
     inkscape:groupmode="layer"
     id="layer2"
     inkscape:label="Body"
     transform="translate(-206.94374,-280.23308)">
    <path
       style="fill:#fc886f;fill-opacity:1;stroke:#f13301;stroke-width:3.20000005;stroke-linecap:butt;stroke-linejoin:miter;stroke-miterlimit:4;stroke-opacity:1;stroke-dasharray:none"
       d="m 281.4978,481.8776 c 0,0 16.29956,-25.99119 21.5859,-36.56388 5.28634,-10.57268 37.88546,-88.10572 37.88546,-88.10572 0,0 9.2511,-24.22908 18.06168,-35.24229 8.81057,-11.01322 33.9207,-39.64758 45.37445,-40.08811 11.45374,-0.44053 14.09691,2.20264 14.09691,16.29956 0,15.4185 -9.2511,17.18061 -11.45374,25.99119 -3.35496,13.41987 -4.40529,86.78414 1.76211,105.28634 6.1674,18.50221 17.62115,63.87666 17.62115,63.87666 0,0 17.09394,24.46284 20.21596,36.0159 4.17965,15.46685 3.57258,31.38498 3.57258,31.38498 l -40.96916,60.79295 5.72687,25.11013 c 0,0 0.44053,28.63436 -3.96475,34.36123 -4.40529,5.72688 -5.28635,14.53745 -17.62115,14.09692 -12.3348,-0.44053 -16.29956,-10.57269 -20.26432,-17.62115 -3.96475,-7.04845 -10.13216,-30.837 -10.13216,-30.837 l -6.1674,-29.95595 -57.26872,-3.52423 11.01322,32.15859 2.64317,8.37005 c 0,0 -1.32159,13.65639 -7.04846,20.26432 -5.72687,6.60793 -9.99107,12.50951 -18.68467,8.29445 -12.34397,-5.98493 -16.99815,-19.30767 -16.99815,-32.52353 0,-13.21586 3.96476,-56.82819 3.96476,-56.82819 L 252.42291,551.0406 c 0,0 -2.64317,-10.13216 -0.44053,-20.26432 2.20264,-10.13216 30.39647,-49.33921 29.51542,-48.89868 z"
       id="path3603"
       sodipodi:nodetypes="cscssssscscccssscccccsssccsc" />
  </g>
  <g
     inkscape:groupmode="layer"
     id="layer3"
     inkscape:label="CloseArm"
     transform="translate(-206.94374,-280.23308)">
    <path
       style="fill:#fc886f;fill-opacity:1;stroke:#f13301;stroke-width:3.20000005;stroke-linecap:butt;stroke-linejoin:miter;stroke-miterlimit:4;stroke-opacity:1;stroke-dasharray:none"
       d="m 400.88106,463.81593 c 0,0 40.0881,-36.56388 53.30396,-44.49339 13.21586,-7.92952 49.33921,-35.68282 56.8282,-26.43172 7.48898,9.2511 2.64317,27.7533 -16.29956,52.86343 -18.94273,25.11014 -61.23348,80.17621 -61.23348,80.17621"
       id="path3605" />
  </g>
  <g
     inkscape:groupmode="layer"
     id="layer8"
     inkscape:label="Dots"
     style="display:inline"
     transform="translate(-206.94374,-280.23308)">
    <path
       sodipodi:type="arc"
       style="fill:#f13301;fill-opacity:1;fill-rule:evenodd;stroke:none"
       id="path3708"
       sodipodi:cx="392.72461"
       sodipodi:cy="317.29822"
       sodipodi:rx="1.7911295"
       sodipodi:ry="3.5043838"
       d="m 394.51574,317.29822 c 0,1.93542 -0.80192,3.50438 -1.79113,3.50438 -0.98921,0 -1.79113,-1.56896 -1.79113,-3.50438 0,-1.93542 0.80192,-3.50439 1.79113,-3.50439 0.98921,0 1.79113,1.56897 1.79113,3.50439 z"
       transform="matrix(0.90838492,0.41813495,-0.41813495,0.90838492,166.93971,-135.29833)"
       inkscape:transform-center-y="0.93450235" />
    <path
       sodipodi:type="arc"
       style="fill:#f13301;fill-opacity:1;fill-rule:evenodd;stroke:none"
       id="path3710"
       sodipodi:cx="457.82828"
       sodipodi:cy="464.94958"
       sodipodi:rx="1.7911295"
       sodipodi:ry="3.3486335"
       d="m 459.61941,464.94958 c 0,1.8494 -0.80192,3.34864 -1.79113,3.34864 -0.98922,0 -1.79113,-1.49924 -1.79113,-3.34864 0,-1.84939 0.80191,-3.34863 1.79113,-3.34863 0.98921,0 1.79113,1.49924 1.79113,3.34863 z"
       transform="matrix(0.73878161,0.6739449,-0.6739449,0.73878161,434.34532,-187.40915)" />
    <path
       sodipodi:type="arc"
       style="fill:#f13301;fill-opacity:1;fill-rule:evenodd;stroke:none"
       id="path3712"
       sodipodi:cx="343.58536"
       sodipodi:cy="546.87427"
       sodipodi:rx="1.5575039"
       sodipodi:ry="3.192883"
       d="m 345.14286,546.87427 c 0,1.76338 -0.69732,3.19288 -1.5575,3.19288 -0.86019,0 -1.55751,-1.4295 -1.55751,-3.19288 0,-1.76338 0.69732,-3.19289 1.55751,-3.19289 0.86018,0 1.5575,1.42951 1.5575,3.19289 z"
       transform="matrix(0.89378425,0.44849718,-0.44849718,0.89378425,282.38874,-96.944903)" />
    <path
       sodipodi:type="arc"
       style="fill:#f13301;fill-opacity:1;fill-rule:evenodd;stroke:none;display:inline"
       id="path3712-0"
       sodipodi:cx="343.58536"
       sodipodi:cy="546.87427"
       sodipodi:rx="1.5575039"
       sodipodi:ry="3.192883"
       d="m 345.14286,546.87427 c 0,1.76338 -0.69732,3.19288 -1.5575,3.19288 -0.86019,0 -1.55751,-1.4295 -1.55751,-3.19288 0,-1.76338 0.69732,-3.19289 1.55751,-3.19289 0.86018,0 1.5575,1.42951 1.5575,3.19289 z"
       transform="matrix(0.68302539,0.73039464,-0.73039464,0.68302539,472.83079,-126.74688)" />
    <path
       sodipodi:type="arc"
       style="fill:#f13301;fill-opacity:1;fill-rule:evenodd;stroke:none;display:inline"
       id="path3712-4"
       sodipodi:cx="343.58536"
       sodipodi:cy="546.87427"
       sodipodi:rx="1.5575039"
       sodipodi:ry="3.192883"
       d="m 345.14286,546.87427 c 0,1.76338 -0.69732,3.19288 -1.5575,3.19288 -0.86019,0 -1.55751,-1.4295 -1.55751,-3.19288 0,-1.76338 0.69732,-3.19289 1.55751,-3.19289 0.86018,0 1.5575,1.42951 1.5575,3.19289 z"
       transform="matrix(0.85893227,0.4009564,-0.4310086,0.79904297,213.85503,-47.255428)" />
    <path
       sodipodi:type="arc"
       style="fill:#f13301;fill-opacity:1;fill-rule:evenodd;stroke:none;display:inline"
       id="path3712-8"
       sodipodi:cx="343.58536"
       sodipodi:cy="546.87427"
       sodipodi:rx="1.5575039"
       sodipodi:ry="3.192883"
       d="m 345.14286,546.87427 c 0,1.76338 -0.69732,3.19288 -1.5575,3.19288 -0.86019,0 -1.55751,-1.4295 -1.55751,-3.19288 0,-1.76338 0.69732,-3.19289 1.55751,-3.19289 0.86018,0 1.5575,1.42951 1.5575,3.19289 z"
       transform="matrix(0.49972898,-0.86618183,0.86618183,0.49972898,-386.69071,455.08085)" />
    <path
       sodipodi:type="arc"
       style="fill:#f13301;fill-opacity:1;fill-rule:evenodd;stroke:none;display:inline"
       id="path3712-45"
       sodipodi:cx="343.58536"
       sodipodi:cy="546.87427"
       sodipodi:rx="1.5575039"
       sodipodi:ry="3.192883"
       d="m 345.14286,546.87427 c 0,1.76338 -0.69732,3.19288 -1.5575,3.19288 -0.86019,0 -1.55751,-1.4295 -1.55751,-3.19288 0,-1.76338 0.69732,-3.19289 1.55751,-3.19289 0.86018,0 1.5575,1.42951 1.5575,3.19289 z"
       transform="matrix(0.95255285,-0.30437324,0.30437324,0.95255285,-208.55814,248.81826)" />
    <path
       style="fill:none;stroke:#000000;stroke-width:1.5;stroke-linecap:butt;stroke-linejoin:miter;stroke-miterlimit:4;stroke-opacity:1;stroke-dasharray:none"
       d="m 298.262,558.32194 c 0,0 -2.95926,6.69726 2.33626,10.27952 5.29551,3.58226 10.27952,4.51677 12.92728,2.95926 2.64776,-1.5575 7.63177,-4.67251 7.63177,-4.67251"
       id="path3814" />
    <path
       style="fill:none;stroke:#000000;stroke-width:1px;stroke-linecap:butt;stroke-linejoin:miter;stroke-opacity:1"
       d="m 306.67252,555.51843 c 0,0 -4.98401,2.80351 -3.42651,5.45126 1.5333,2.6066 4.20526,2.80351 5.60702,2.95926 1.40175,0.15575 3.58226,-0.15575 3.58226,-0.15575"
       id="path3816"
       sodipodi:nodetypes="cssc" />
  </g>
  <g
     inkscape:groupmode="layer"
     id="layer5"
     inkscape:label="Eyes"
     transform="translate(-206.94374,-280.23308)">
    <path
       sodipodi:type="arc"
       style="fill:#ffffff;fill-opacity:1;fill-rule:evenodd;stroke:#000000;stroke-width:2;stroke-linecap:butt;stroke-linejoin:miter;stroke-miterlimit:4;stroke-opacity:1;stroke-dasharray:none"
       id="path3613"
       sodipodi:cx="371.36563"
       sodipodi:cy="402.36218"
       sodipodi:rx="19.603525"
       sodipodi:ry="28.193832"
       d="m 390.96916,402.36218 c 0,15.57103 -8.7768,28.19384 -19.60353,28.19384 -10.82673,0 -19.60352,-12.62281 -19.60352,-28.19384 0,-15.57102 8.77679,-28.19383 19.60352,-28.19383 10.82673,0 19.60353,12.62281 19.60353,28.19383 z"
       transform="matrix(0.93785505,0.23431443,-0.21152818,0.94766626,67.110139,-70.254364)" />
    <path
       sodipodi:type="arc"
       style="fill:#ffffff;fill-opacity:1;fill-rule:evenodd;stroke:#000000;stroke-width:2;stroke-linecap:butt;stroke-linejoin:miter;stroke-miterlimit:4;stroke-opacity:1;stroke-dasharray:none"
       id="path3613-1"
       sodipodi:cx="371.36563"
       sodipodi:cy="402.36218"
       sodipodi:rx="19.603525"
       sodipodi:ry="28.193832"
       d="m 390.96916,402.36218 c 0,15.57103 -8.7768,28.19384 -19.60353,28.19384 -10.82673,0 -19.60352,-12.62281 -19.60352,-28.19384 0,-15.57102 8.77679,-28.19383 19.60352,-28.19383 10.82673,0 19.60353,12.62281 19.60353,28.19383 z"
       transform="matrix(0.93785505,0.23431443,-0.21152818,0.94766626,98.05729,-68.161852)" />
    <path
       sodipodi:type="arc"
       style="fill:#000000;fill-opacity:1;fill-rule:evenodd;stroke:none"
       id="path3637"
       sodipodi:cx="332.37885"
       sodipodi:cy="397.18597"
       sodipodi:rx="4.1850219"
       sodipodi:ry="6.0572686"
       d="m 336.56387,397.18597 c 0,3.34534 -1.8737,6.05727 -4.18502,6.05727 -2.31133,0 -4.18503,-2.71193 -4.18503,-6.05727 0,-3.34533 1.8737,-6.05726 4.18503,-6.05726 2.31132,0 4.18502,2.71193 4.18502,6.05726 z"
       transform="matrix(1.1475865,0.29223233,-0.28715518,1.1276487,65.770295,-146.84091)" />
    <path
       sodipodi:type="arc"
       style="fill:#000000;fill-opacity:1;fill-rule:evenodd;stroke:none"
       id="path3637-7"
       sodipodi:cx="332.37885"
       sodipodi:cy="397.18597"
       sodipodi:rx="4.1850219"
       sodipodi:ry="6.0572686"
       d="m 336.56387,397.18597 c 0,3.34534 -1.8737,6.05727 -4.18502,6.05727 -2.31133,0 -4.18503,-2.71193 -4.18503,-6.05727 0,-3.34533 1.8737,-6.05726 4.18503,-6.05726 2.31132,0 4.18502,2.71193 4.18502,6.05726 z"
       transform="matrix(1.2217955,0.30614424,-0.30572414,1.1813312,74.251083,-170.4741)" />
    <path
       style="fill:#000000;stroke:none"
       d="m 369.43993,355.53493 c 0,0 -2.80351,-3.27076 -1.40175,-4.36101 1.40175,-1.09026 6.69726,1.869 9.18927,3.89376 2.49201,2.02475 6.38577,4.51676 4.36101,5.60701 -2.02475,1.09025 -4.82826,-0.623 -4.82826,-0.623 0,0 4.36101,3.73801 2.02475,4.67251 -2.33625,0.9345 -7.32026,-2.49201 -9.81227,-4.98401 -2.49201,-2.49201 -7.47602,-5.60702 -4.04951,-5.13977 3.42651,0.46726 4.36101,0.62301 4.51676,0.93451 z"
       id="path3703" />
    <path
       style="fill:#000000;stroke:none"
       d="m 341.56061,352.10842 c 0,0 -5.29551,2.1805 -5.45126,1.09025 -0.15575,-1.09025 -1.24601,-1.5575 1.5575,-2.64776 2.80351,-1.09025 11.83703,-4.82826 12.77153,-3.58225 0.93451,1.246 -7.00876,4.36101 -5.45126,5.13976 1.5575,0.77875 5.60701,-3.42651 5.91851,-1.55751 0.3115,1.86901 -1.09025,4.67252 -4.82826,5.45127 -3.73801,0.77875 -8.87777,3.11501 -9.34502,1.71325 -0.46725,-1.40175 4.98401,-5.29551 4.82826,-5.60701 z"
       id="path3705" />
  </g>
  <g
     inkscape:groupmode="layer"
     id="layer6"
     inkscape:label="MouthBack"
     style="display:inline"
     transform="translate(-206.94374,-280.23308)">
    <path
       style="fill:#7d0b01;fill-opacity:1;stroke:none"
       d="m 386.34361,431.21681 c 0,0 -2.64317,28.63436 -19.38326,41.40969 -16.74009,12.77533 -28.63436,15.85903 -42.95154,12.77533 -14.31718,-3.0837 -17.18062,-7.92952 -17.18062,-7.92952 0,0 12.3348,-11.89427 12.9956,-17.62114 0.83927,-7.27366 1.76211,-16.29956 1.76211,-16.29956 0,0 12.33481,2.86344 20.92511,1.76211 8.59031,-1.10132 22.90749,-4.62555 29.29516,-7.26872 6.38766,-2.64317 14.75771,-7.04846 14.53744,-6.82819 z"
       id="path3662"
       sodipodi:nodetypes="csscscssc" />
    <path
       style="fill:none;stroke:#000000;stroke-width:2;stroke-linecap:butt;stroke-linejoin:miter;stroke-miterlimit:4;stroke-opacity:1;stroke-dasharray:none"
       d="m 306.93833,477.69258 -5.28635,-5.17621"
       id="path3664" />
    <path
       style="fill:none;stroke:#000000;stroke-width:2;stroke-linecap:butt;stroke-linejoin:miter;stroke-miterlimit:4;stroke-opacity:1;stroke-dasharray:none"
       d="M 321.82941,443.84692 315.175,440.61313"
       id="path3664-4"
       inkscape:transform-center-x="-2.3127753" />
    <path
       style="fill:none;stroke:#000000;stroke-width:2;stroke-linecap:butt;stroke-linejoin:miter;stroke-miterlimit:4;stroke-opacity:1;stroke-dasharray:none"
       d="m 379.95595,427.47231 c 0,0 5.72687,2.09252 7.92951,3.63437 2.20265,1.54185 4.29516,3.96475 4.29516,3.96475"
       id="path3688" />
  </g>
  <g
     inkscape:groupmode="layer"
     id="layer7"
     inkscape:label="Tounge"
     transform="translate(-206.94374,-280.23308)">
    <path
       style="fill:#f88f96;fill-opacity:1;stroke:#a91827;stroke-width:1.5;stroke-linecap:butt;stroke-linejoin:miter;stroke-miterlimit:4;stroke-opacity:1;stroke-dasharray:none"
       d="m 372.08768,466.89646 c 0,0 -5.27232,-1.70997 -10.74664,-1.73797 -5.04528,-0.0258 -10.26213,1.56469 -11.68141,2.98397 -2.95926,2.95926 -6.23001,5.45126 -6.23001,5.45126 l 4.67251,-5.45126 c 0,0 -9.13553,-0.5438 -14.32904,0.77875 -0.99219,0.25267 -2.40259,0.72058 -3.80162,1.24853 -2.63854,0.99569 -6.33024,3.24633 -8.34691,6.22749 -1.89236,2.7974 -2.536,6.72516 -1.42089,7.80724 0.71492,0.69374 7.85393,2.05723 8.97522,2.17581 3.71231,0.3926 4.13627,0.42972 7.69886,0.15985 3.52099,-0.26673 7.36932,-2.08655 9.02867,-2.14734 1.68375,-0.0617 4.75097,-1.49303 7.38399,-2.90062 2.60186,-1.39094 15.05926,-9.45595 15.05926,-9.45595"
       id="path3701"
       sodipodi:nodetypes="cssccssssssssc" />
  </g>
  <g
     inkscape:label="Mouth"
     id="g3690"
     inkscape:groupmode="layer"
     style="display:inline"
     transform="translate(-206.94374,-280.23308)">
    <path
       sodipodi:nodetypes="csscscssc"
       id="path3692"
       d="m 386.34361,431.21681 c 0,0 -2.64317,28.63436 -19.38326,41.40969 -16.74009,12.77533 -28.63436,15.85903 -42.95154,12.77533 -14.31718,-3.0837 -17.18062,-7.92952 -17.18062,-7.92952 0,0 12.3348,-11.89427 12.9956,-17.62114 0.83927,-7.27366 1.76211,-16.29956 1.76211,-16.29956 0,0 12.33481,2.86344 20.92511,1.76211 8.59031,-1.10132 22.90749,-4.62555 29.29516,-7.26872 6.38766,-2.64317 14.75771,-7.04846 14.53744,-6.82819 z"
       style="fill:none;stroke:#000000;stroke-width:2;stroke-linecap:butt;stroke-linejoin:miter;stroke-miterlimit:4;stroke-opacity:1;stroke-dasharray:none" />
    <path
       id="path3694"
       d="m 306.93833,477.69258 -5.28635,-5.17621"
       style="fill:none;stroke:#000000;stroke-width:2;stroke-linecap:butt;stroke-linejoin:miter;stroke-miterlimit:4;stroke-opacity:1;stroke-dasharray:none" />
    <path
       inkscape:transform-center-x="-2.3127753"
       id="path3696"
       d="M 321.82941,443.84692 315.175,440.61313"
       style="fill:none;stroke:#000000;stroke-width:2;stroke-linecap:butt;stroke-linejoin:miter;stroke-miterlimit:4;stroke-opacity:1;stroke-dasharray:none" />
    <path
       id="path3698"
       d="m 379.95595,427.47231 c 0,0 5.72687,2.09252 7.92951,3.63437 2.20265,1.54185 4.29516,3.96475 4.29516,3.96475"
       style="fill:none;stroke:#000000;stroke-width:2;stroke-linecap:butt;stroke-linejoin:miter;stroke-miterlimit:4;stroke-opacity:1;stroke-dasharray:none" />
  </g>
  <g
     inkscape:groupmode="layer"
     id="layer9"
     inkscape:label="Pants Basic"
     style="display:inline"
     transform="translate(-206.94374,-280.23308)">
    <path
       style="fill:#b2db1f;fill-opacity:1;stroke:#000000;stroke-width:2.5;stroke-linecap:butt;stroke-linejoin:miter;stroke-miterlimit:4;stroke-opacity:1;stroke-dasharray:none"
       d="m 265.08717,609.71957 c 0,0 1.5575,4.04951 -0.9345,11.52553 -2.49201,7.47602 -6.23002,10.90252 -4.67252,13.70603 1.55751,2.80351 10.27953,11.83703 19.31305,14.64054 9.03353,2.80351 25.85457,6.23001 32.39608,4.67251 6.54152,-1.5575 9.65653,-5.60701 9.65653,-5.60701 l -1.86901,-14.32904 -34.88808,-38.3146 -19.00155,13.70604 z"
       id="path3768" />
    <path
       style="fill:#b2db1f;fill-opacity:1;stroke:#000000;stroke-width:3.20000005;stroke-linecap:butt;stroke-linejoin:miter;stroke-miterlimit:4;stroke-opacity:1;stroke-dasharray:none;display:inline"
       d="m 451.42528,550.05289 c 0,0 5.29551,15.57504 -0.3115,31.15008 -5.60702,15.57504 -11.21403,28.34657 -19.00155,35.19959 -7.78752,6.85301 -4.36101,12.77153 -31.77308,19.00154 -27.41207,6.23002 -28.34657,8.41052 -39.8721,8.72203 -11.52553,0.3115 -35.51109,-1.86901 -53.57814,-9.34503 -18.06704,-7.47602 -46.10211,-22.73956 -50.46312,-38.00309 -4.36101,-15.26354 -9.03353,-27.10057 -7.78752,-38.3146 1.246,-11.21403 1.246,-17.44404 1.246,-17.44404 0,0 14.64054,22.73955 26.16607,28.96957 11.52553,6.23001 33.01908,16.82104 54.51263,19.00155 21.49356,2.1805 43.29861,1.869 55.44714,-2.49201 12.14853,-4.36101 40.18361,-14.95204 46.10212,-19.62455 5.91851,-4.67251 19.62455,-17.13254 19.31305,-16.82104 z"
       id="path3764"
       sodipodi:nodetypes="cssssssscssssc" />
    <path
       style="fill:#b2db1f;fill-opacity:1;stroke:#000000;stroke-width:3.20000005;stroke-linecap:butt;stroke-linejoin:miter;stroke-miterlimit:4;stroke-opacity:1;stroke-dasharray:none;display:inline"
       d="m 420.99332,628.81642 c 0,0 3.11501,6.85302 3.73801,11.21403 0.623,4.36101 1.5575,11.21403 1.5575,11.21403 0,0 -16.50954,9.96802 -33.01908,10.90252 -16.50954,0.9345 -38.3146,-3.73801 -38.3146,-7.47602 0,-3.73801 3.42651,-13.39453 2.18051,-16.19804 -1.246,-2.8035 -1.246,-2.8035 -1.246,-2.8035 l 0,-0.31151"
       id="path3766"
       sodipodi:nodetypes="cscssscc" />
    <path
       style="fill:none;stroke:#000000;stroke-width:2;stroke-linecap:butt;stroke-linejoin:miter;stroke-miterlimit:4;stroke-opacity:1;stroke-dasharray:none"
       d="m 249.51213,550.37867 c 0,0 7.47602,15.26354 18.69005,21.9608 11.21402,6.69727 34.73233,18.8458 53.26663,21.64931 18.5343,2.8035 45.32336,5.13976 63.07891,-0.77875 17.75554,-5.91852 41.1181,-14.32904 49.06137,-20.24756 7.94327,-5.91851 19.7803,-15.88654 19.7803,-15.88654"
       id="path3819"
       sodipodi:nodetypes="cssssc" />
  </g>
  <g
     inkscape:groupmode="layer"
     id="layer11"
     inkscape:label="Flowers"
     style="display:inline"
     transform="translate(-206.94374,-280.23308)">
    <path
       style="fill:#7352a3;fill-opacity:1;stroke:#4d4987;stroke-width:1px;stroke-linecap:butt;stroke-linejoin:miter;stroke-opacity:1"
       d="m 439.20705,605.66615 c 0,0 -13.87665,-5.72688 -20.48458,1.32158 -6.60793,7.04846 -12.11454,10.35243 -12.11454,13.65639 0,3.30397 0,4.18502 3.52423,5.94714 3.52423,1.76211 8.37004,2.64317 7.26872,6.82819 -1.10132,4.18502 -0.88106,4.62555 -3.74449,5.06608 -2.86344,0.44053 -5.06608,-4.18502 -9.03084,-3.96476 -3.96476,0.22027 -9.03084,4.62555 -9.03084,8.59031 0,3.96476 -0.44052,13.43612 1.10133,16.29956 1.54185,2.86344 2.20264,3.30397 2.20264,3.30397 l 16.07929,-4.84582 10.79296,-5.28634 -0.6608,-14.09692 -3.96476,-10.57269 9.69163,-7.70925 6.8282,-8.81057 3.30396,-4.40529 -1.76211,-1.32158 z"
       id="path3887"
       sodipodi:nodetypes="cssssssssccccccccc" />
    <path
       style="fill:#7352a3;fill-opacity:1;stroke:#594c90;stroke-width:1px;stroke-linecap:butt;stroke-linejoin:miter;stroke-opacity:1"
       d="m 340.7489,596.63531 c 0,0 -1.76212,8.59031 -3.52423,10.79295 -1.76211,2.20264 -5.94714,6.8282 -11.01322,6.38767 -5.06608,-0.44053 -7.70925,-3.52423 -8.37004,-6.60793 -0.66079,-3.0837 -1.76211,-5.28635 -4.18502,-4.84582 -2.42291,0.44053 -2.64317,1.98238 -2.20265,7.26872 0.44053,5.28635 0,8.59031 -5.28634,8.37005 -5.28634,-0.22027 -16.07929,-1.10132 -19.60352,-3.52423 -3.52423,-2.42291 -9.9119,-5.06608 -11.01322,-8.59031 -1.10132,-3.52423 -1.76211,-5.28634 2.20264,-9.2511 3.96476,-3.96476 6.8282,-6.1674 5.28635,-7.92952 -1.54185,-1.76211 -3.0837,-1.98237 -5.94714,-0.22026 -2.86343,1.76211 -4.40529,5.72687 -7.26872,3.96476 -2.86344,-1.76212 -5.06608,-4.84582 -5.06608,-7.92952 0,-3.0837 0.88106,-14.09691 0.88106,-14.09691 0,0 9.03084,7.70924 27.7533,14.7577 18.72247,7.04846 16.0793,7.48899 47.35683,11.45375 z"
       id="path3889"
       sodipodi:nodetypes="cssssssssssssscsc" />
  </g>
  <g
     style="display:inline"
     inkscape:label="Pants Border"
     id="g3839"
     inkscape:groupmode="layer"
     transform="translate(-206.94374,-280.23308)">
    <path
       style="fill:none;stroke:#000000;stroke-width:3.20000005;stroke-linecap:butt;stroke-linejoin:miter;stroke-miterlimit:4;stroke-opacity:1;stroke-dasharray:none;display:inline"
       d="m 356.06176,644.34639 c -9.10262,0.0912 -31.1058,-2.08927 -49.17285,-9.56529 -18.06704,-7.47602 -46.10211,-22.73956 -50.46312,-38.00309 -4.36101,-15.26354 -9.03353,-27.10057 -7.78752,-38.3146 1.246,-11.21403 1.246,-17.44404 1.246,-17.44404 0,0 14.64054,22.73955 26.16607,28.96957 11.52553,6.23001 33.01908,16.82104 54.51263,19.00155 21.49356,2.1805 43.29861,1.869 55.44714,-2.49201 12.14853,-4.36101 40.18361,-14.95204 46.10212,-19.62455 5.91851,-4.67251 19.62455,-17.13254 19.31305,-16.82104 l 0,0 0,0 c 0,0 5.29551,15.57504 -0.3115,31.15008 -5.60702,15.57504 -10.99377,29.66816 -18.78129,36.52118 -4.76328,4.19169 -7.97431,8.69455 -13.96983,12.47213"
       id="path3885"
       sodipodi:nodetypes="cssscsssscccssc" />
    <path
       sodipodi:nodetypes="cscssscc"
       id="path3847"
       d="m 420.99332,628.81642 c 0,0 3.11501,6.85302 3.73801,11.21403 0.623,4.36101 1.5575,11.21403 1.5575,11.21403 0,0 -16.50954,9.96802 -33.01908,10.90252 -16.50954,0.9345 -38.3146,-3.73801 -38.3146,-7.47602 0,-3.73801 3.42651,-13.39453 2.18051,-16.19804 -1.246,-2.8035 -1.246,-2.8035 -1.246,-2.8035 l 0,-0.31151"
       style="fill:none;stroke:#000000;stroke-width:3.20000005;stroke-linecap:butt;stroke-linejoin:miter;stroke-miterlimit:4;stroke-opacity:1;stroke-dasharray:none;display:inline" />
    <path
       sodipodi:nodetypes="cssssc"
       id="path3849"
       d="m 249.51213,550.37867 c 0,0 7.47602,15.26354 18.69005,21.9608 11.21402,6.69727 34.73233,18.8458 53.26663,21.64931 18.5343,2.8035 45.32336,5.13976 63.07891,-0.77875 17.75554,-5.91852 41.1181,-14.32904 49.06137,-20.24756 7.94327,-5.91851 19.7803,-15.88654 19.7803,-15.88654"
       style="fill:none;stroke:#000000;stroke-width:2;stroke-linecap:butt;stroke-linejoin:miter;stroke-miterlimit:4;stroke-opacity:1;stroke-dasharray:none" />
  </g>
</svg>
